<svg xmlns="http://www.w3.org/2000/svg" viewBox="0 0 1200 630" width="1200" height="630">
  <defs>
    <linearGradient id="hg" x1="0" y1="0" x2="0" y2="1">
      <stop offset="0%" stop-color="#D4A830"/>
      <stop offset="40%" stop-color="#C4982A"/>
      <stop offset="70%" stop-color="#8B3A4A"/>
      <stop offset="100%" stop-color="#4A0E1B"/>
    </linearGradient>
    <linearGradient id="bg-grad" x1="0" y1="0" x2="0.5" y2="1">
      <stop offset="0%" stop-color="#2A1A24"/>
      <stop offset="60%" stop-color="#3D2435"/>
      <stop offset="100%" stop-color="#4A2E40"/>
    </linearGradient>
  </defs>
  <!-- Background -->
  <rect width="1200" height="630" fill="url(#bg-grad)"/>
  <!-- Decorative circles -->
  <circle cx="1050" cy="120" r="200" fill="rgba(232, 184, 74, 0.04)"/>
  <circle cx="100" cy="530" r="150" fill="rgba(125, 78, 110, 0.08)"/>
  <!-- Heart icon -->
  <g transform="translate(460, 100) scale(4)">
    <path d="M32 56.9l-3.87-3.52C14.4 40.96 5.33 32.75 5.33 22.67 5.33 14.45 11.78 8 20 8c4.64 0 9.09 2.16 12 5.57C34.91 10.16 39.36 8 44 8c8.22 0 14.67 6.45 14.67 14.67 0 10.08-9.07 18.29-22.8 30.72L32 56.9z" fill="url(#hg)"/>
  </g>
  <!-- Brand name -->
  <style>
    .og-title { font-family: 'Figtree', system-ui, sans-serif; font-weight: 700; font-size: 80px; fill: #F0D060; }
    .og-tagline { font-family: 'Figtree', system-ui, sans-serif; font-weight: 400; font-size: 32px; fill: #C4A07A; }
    .og-url { font-family: 'Figtree', system-ui, sans-serif; font-weight: 500; font-size: 26px; fill: #E8B84A; }
  </style>
  <text x="600" y="460" text-anchor="middle" class="og-title">1 in 7</text>
  <text x="600" y="520" text-anchor="middle" class="og-tagline">Endometriosis &amp; Adenomyosis Resources</text>
  <text x="600" y="590" text-anchor="middle" class="og-url">1in7.info</text>
</svg>
